<svg width="51" height="51" viewBox="0 0 51 51" fill="none" xmlns="http://www.w3.org/2000/svg">
<g clip-path="url(#clip0_9_12)">
<g filter="url(#filter0_d_9_12)">
<path d="M1.5392 51C0.5624 51 0 50.556 0 49.4312C0 46.5305 3.8479 40.2258 8.4655 34.6907C6.3935 32.0563 5.0911 28.2676 5.0911 24.0644C5.0911 14.1486 12.4022 8.9983 11.0406 8.9983C9.4423 8.9983 5.1503 17.4045 1.3616 17.4045C0.384801 17.4045 0 16.8421 0 15.8062C0 10.6558 9.531 0 14.3854 0C15.4214 0 15.7766 0.4736 15.7766 1.2136C15.7766 3.0784 13.4382 6.5711 11.4254 8.5839H11.5734C16.7237 3.3447 21.5781 0 23.9756 0C24.7748 0 25.1596 0.384799 25.1596 1.0656C25.1596 4.5287 15.2142 17.4045 10.9814 17.4045C10.4782 17.4045 10.2414 17.2269 10.2414 16.9013C10.2414 15.2734 15.8949 10.0638 15.8949 9.1463C15.8949 9.0575 15.8358 8.9983 15.6878 8.9983C14.2078 8.9983 6.3935 18.2925 6.3935 21.6965C6.3935 22.4364 6.7783 22.91 7.7255 22.91C15.2734 22.91 28.4748 0 41.6761 0C48.5136 0 51 6.1863 51 11.6622C51 15.5398 49.7568 21.5485 49.7568 23.1764C49.7568 24.0348 50.112 24.5084 51 24.9228C48.8984 28.0012 45.2577 29.9547 41.9721 29.9547C40.6994 29.9547 39.5154 29.6883 38.3906 29.0667H38.2426C39.6338 30.9907 41.8537 32.0859 44.0441 32.0859C45.4353 32.0859 46.7969 31.6419 47.892 30.6947L47.9513 30.7539C45.7905 35.4306 41.8833 39.5746 36.3186 41.7353C36.881 43.5705 37.5618 46.5897 37.5618 48.7504C37.5618 50.0824 37.2954 51 36.437 51C34.6019 51 30.6651 46.6785 29.5107 44.7841C31.1683 44.1921 32.9443 43.3929 33.9211 42.8009V42.6529C31.7603 43.1857 29.4515 43.4817 27.0836 43.4817C23.4428 43.4817 19.7429 42.8009 16.6645 41.3209C18.2333 38.8938 19.4173 35.9042 20.0389 33.4179H19.8909C15.1254 41.0842 6.1863 51 1.5392 51ZM34.6019 25.722C34.6019 26.5212 35.2234 27.1428 36.0522 27.1428C36.881 27.1428 37.473 26.5212 37.473 25.722C37.473 24.8932 36.8514 24.2716 36.0522 24.2716C35.253 24.2716 34.6019 24.8932 34.6019 25.722Z" fill="#382EF8"/>
</g>
</g>
<defs>
<filter id="filter0_d_9_12" x="-30.776" y="-21.9829" width="103.759" height="103.759" filterUnits="userSpaceOnUse" color-interpolation-filters="sRGB">
<feFlood flood-opacity="0" result="BackgroundImageFix"/>
<feColorMatrix in="SourceAlpha" type="matrix" values="0 0 0 0 0 0 0 0 0 0 0 0 0 0 0 0 0 0 127 0" result="hardAlpha"/>
<feOffset dx="-4.39655" dy="4.39655"/>
<feGaussianBlur stdDeviation="13.1897"/>
<feComposite in2="hardAlpha" operator="out"/>
<feColorMatrix type="matrix" values="0 0 0 0 0 0 0 0 0 0 0 0 0 0 0 0 0 0 0.05 0"/>
<feBlend mode="normal" in2="BackgroundImageFix" result="effect1_dropShadow_9_12"/>
<feBlend mode="normal" in="SourceGraphic" in2="effect1_dropShadow_9_12" result="shape"/>
</filter>
<clipPath id="clip0_9_12">
<rect width="51" height="51" fill="white"/>
</clipPath>
</defs>
</svg>
