<svg width="104" height="104" viewBox="0 0 104 104" fill="none" xmlns="http://www.w3.org/2000/svg">
<g filter="url(#filter0_d_9_9)">
<path d="M32.3151 72.9828C31.3383 72.9828 30.7759 72.5388 30.7759 71.414C30.7759 68.5133 34.6238 62.2086 39.2414 56.6735C37.1694 54.0391 35.867 50.2504 35.867 46.0472C35.867 36.1314 43.1781 30.9811 41.8165 30.9811C40.2182 30.9811 35.9262 39.3873 32.1375 39.3873C31.1607 39.3873 30.7759 38.8249 30.7759 37.789C30.7759 32.6386 40.3069 21.9828 45.1613 21.9828C46.1973 21.9828 46.5525 22.4564 46.5525 23.1964C46.5525 25.0612 44.2141 28.5539 42.2013 30.5667H42.3493C47.4996 25.3275 52.354 21.9828 54.7515 21.9828C55.5507 21.9828 55.9355 22.3676 55.9355 23.0484C55.9355 26.5115 45.9901 39.3873 41.7573 39.3873C41.2541 39.3873 41.0173 39.2097 41.0173 38.8841C41.0173 37.2562 46.6708 32.0466 46.6708 31.1291C46.6708 31.0403 46.6117 30.9811 46.4637 30.9811C44.9837 30.9811 37.1694 40.2753 37.1694 43.6793C37.1694 44.4192 37.5542 44.8928 38.5014 44.8928C46.0493 44.8928 59.2507 21.9828 72.452 21.9828C79.2895 21.9828 81.7759 28.1691 81.7759 33.6451C81.7759 37.5227 80.5327 43.5313 80.5327 45.1592C80.5327 46.0176 80.8879 46.4912 81.7759 46.9056C79.6743 49.984 76.0336 51.9375 72.748 51.9375C71.4753 51.9375 70.2913 51.6711 69.1665 51.0495H69.0185C70.4097 52.9735 72.6296 54.0687 74.82 54.0687C76.2112 54.0687 77.5728 53.6247 78.6679 52.6775L78.7272 52.7367C76.5664 57.4134 72.6592 61.5574 67.0945 63.7181C67.6569 65.5533 68.3377 68.5725 68.3377 70.7332C68.3377 72.0652 68.0713 72.9828 67.2129 72.9828C65.3778 72.9828 61.441 68.6614 60.2866 66.767C61.9442 66.175 63.7202 65.3757 64.697 64.7837V64.6357C62.5362 65.1685 60.2274 65.4646 57.8595 65.4646C54.2187 65.4646 50.5188 64.7837 47.4404 63.3037C49.0092 60.8766 50.1932 57.887 50.8148 55.4007H50.6668C45.9013 63.067 36.9622 72.9828 32.3151 72.9828ZM65.3778 47.7048C65.3778 48.504 65.9993 49.1256 66.8281 49.1256C67.6569 49.1256 68.2489 48.504 68.2489 47.7048C68.2489 46.876 67.6273 46.2544 66.8281 46.2544C66.0289 46.2544 65.3778 46.876 65.3778 47.7048Z" fill="#382EF8"/>
</g>
<defs>
<filter id="filter0_d_9_9" x="-1.04904e-05" y="-9.53674e-07" width="103.759" height="103.759" filterUnits="userSpaceOnUse" color-interpolation-filters="sRGB">
<feFlood flood-opacity="0" result="BackgroundImageFix"/>
<feColorMatrix in="SourceAlpha" type="matrix" values="0 0 0 0 0 0 0 0 0 0 0 0 0 0 0 0 0 0 127 0" result="hardAlpha"/>
<feOffset dx="-4.39655" dy="4.39655"/>
<feGaussianBlur stdDeviation="13.1897"/>
<feComposite in2="hardAlpha" operator="out"/>
<feColorMatrix type="matrix" values="0 0 0 0 0 0 0 0 0 0 0 0 0 0 0 0 0 0 0.05 0"/>
<feBlend mode="normal" in2="BackgroundImageFix" result="effect1_dropShadow_9_9"/>
<feBlend mode="normal" in="SourceGraphic" in2="effect1_dropShadow_9_9" result="shape"/>
</filter>
</defs>
</svg>
